<svg width="96" height="96" viewBox="0 0 96 96" fill="none" xmlns="http://www.w3.org/2000/svg">
  <rect width="96" height="96" rx="24" fill="#0F8B8D"/>
  <path d="M42.7 65.2C39.5 66.6 35.9 67.4 31.9 67.4C19.8 67.4 12 59.4 12 48.1C12 36.5 20 28.6 32.1 28.6C39.2 28.6 45.1 31.3 48.8 36L40.4 42.4C38.6 39.9 35.8 38.5 32.3 38.5C26.7 38.5 23.1 42.3 23.1 48.1C23.1 54 26.9 57.8 32.8 57.8C35.2 57.8 37.1 57.4 38.7 56.5V53H30.7V44.5H49.3V62C47.6 63.2 45.4 64.3 42.7 65.2Z" fill="white"/>
  <path d="M60.3 67V39.2H50.5V29H82V39.2H72.2V67H60.3Z" fill="white"/>
  <path d="M24 72H72" stroke="#F47C57" stroke-width="7" stroke-linecap="round"/>
</svg>
