<svg width="64" height="64" viewBox="0 0 64 64" fill="none" xmlns="http://www.w3.org/2000/svg">
  <rect width="64" height="64" rx="16" fill="#0F8B8D"/>
  <path d="M28.7 43.3C26.6 44.3 24.2 44.8 21.4 44.8C13.3 44.8 8 39.5 8 32C8 24.3 13.3 19 21.4 19C26.2 19 30.1 20.8 32.6 23.9L27 28.2C25.8 26.6 24 25.7 21.6 25.7C17.9 25.7 15.4 28.2 15.4 32C15.4 35.9 18 38.5 21.9 38.5C23.5 38.5 24.8 38.2 25.8 37.7V35.3H20.5V29.8H32.9V41.4C31.8 42.2 30.4 42.8 28.7 43.3Z" fill="white"/>
  <path d="M40.2 44.5V26.2H33.7V19.5H55V26.2H48.4V44.5H40.2Z" fill="white"/>
  <path d="M16 48H48" stroke="#F47C57" stroke-width="5" stroke-linecap="round"/>
</svg>
